PathFileType	4	(X/Y/Z)	D:\TRACE\v60_Jaco2_6-2-23\ArmBody_Mo2_DMP_1-v60.trc
DataRate	CameraRate	NumFrames	NumMarkers	Units	OrigDataRate	OrigDataStartFrame	OrigNumFrames
100.00	100.00	      35	9	mm	100.00	2457	      6551
Frame#	Time	front left toe			Front right toe			aft left toe			aft right toe			Arm			FL body			FR body			AL Body			AR Body			
		X1	Y1	Z1	X2	Y2	Z2	X3	Y3	Z3	X4	Y4	Z4	X5	Y5	Z5	X6	Y6	Z6	X7	Y7	Z7	X8	Y8	Z8	X9	Y9	Z9	

2457	24.560	-95.78358	48.29126	-156.70988	308.66833	29.93441	-212.65845	-19.19210	-7.91660	451.39575	287.35242	12.47103	448.99661	58.19852	1173.41174	-583.13495	4.79215	595.52747	-310.59973	163.68706	598.88324	-323.52634	91.38512	523.05328	629.74219	245.37419	513.15961	615.59674	
2458	24.570	-94.87887	57.33058	-156.56882	308.58136	29.55658	-212.77544	-20.42918	-6.89146	451.16510	285.79623	24.39741	447.86484	53.15361	1175.40027	-584.84009	3.47618	594.46320	-311.84457	162.29199	598.45959	-325.12766	90.95574	524.32214	627.38879	245.60260	515.01526	613.99701	
2459	24.580	-95.62109	69.74253	-157.62187	306.54813	28.82873	-213.55540	-21.54647	-6.06488	450.97977	285.96191	38.04499	445.48413	49.25629	1176.29126	-585.52051	2.34625	593.72058	-313.28329	161.07573	597.55060	-326.77551	91.36105	526.77789	628.54077	245.85831	516.60767	612.65405	
2460	24.590	-98.34392	82.79390	-159.03014	305.87781	28.26882	-213.55377	-22.75807	-5.41823	450.92731	289.75116	51.81679	442.48859	45.56858	1176.18701	-586.92450	1.27771	593.25586	-314.53207	160.00368	596.72913	-328.16891	90.69608	527.56012	626.21167	245.52634	517.42981	611.22058	
2461	24.600	-102.51157	96.67596	-161.55951	304.61853	28.07029	-213.78191	-24.06864	-4.67121	450.80798	293.88867	65.89066	438.53577	43.01945	1175.06323	-588.79230	0.40580	592.71075	-315.60052	158.94400	596.46112	-329.30911	90.07336	527.82288	624.89124	245.15494	517.75751	609.82867	
2462	24.610	-106.00257	110.46370	-163.63017	303.24603	27.48759	-214.31590	-25.18400	-4.09483	450.45804	297.39575	79.01430	434.13937	41.54710	1173.19202	-591.12689	-1.09453	592.23407	-316.85712	157.74680	596.25946	-330.44739	89.72718	528.10968	624.78955	242.98524	518.00385	608.86572	
2463	24.620	-109.02917	123.55270	-165.77945	302.79782	27.20646	-214.51927	-26.61786	-3.32694	450.11908	301.89374	91.34985	429.54813	40.63143	1171.13379	-593.63708	-2.52866	591.73602	-317.76959	156.29494	595.73474	-331.55240	89.45112	528.26007	623.53845	242.37984	518.48407	607.70105	
2464	24.630	-110.13572	136.11143	-168.14122	301.15121	26.41962	-215.04591	-27.56156	-2.70931	449.89389	302.74207	102.80667	424.91327	40.10727	1169.26697	-595.74030	-4.48923	591.00854	-318.50305	154.40579	594.98553	-332.67328	88.18156	528.84680	622.02020	241.71245	519.03461	606.66132	
2465	24.640	-111.70358	147.43982	-169.98892	300.11816	25.95023	-215.44427	-28.76858	-1.85451	449.94507	304.66837	114.52685	420.54703	39.43374	1167.78491	-597.64880	-5.97093	590.15625	-319.46219	152.58313	594.04077	-333.67859	87.33711	529.80676	620.92499	242.59711	520.12805	605.70898	
2466	24.650	-113.77729	156.96643	-171.86017	298.68774	25.45476	-215.73804	-29.60825	-1.08147	449.82272	305.46863	125.04765	416.53833	38.17018	1166.90417	-599.84436	-7.65420	589.20349	-320.22037	150.21629	593.19257	-334.65054	86.63491	530.86298	620.54785	239.98248	521.03833	604.82526	
2467	24.660	-116.72849	162.88719	-172.61613	297.52591	24.88193	-216.14403	-30.96293	0.05649	449.50397	305.43369	133.51784	412.71121	37.33303	1165.95984	-601.72760	-9.48505	588.48450	-321.05179	149.04797	591.79407	-335.02826	85.40012	532.13177	619.60480	240.79060	522.28107	604.00665	
2468	24.670	-120.08828	167.35614	-173.80438	296.30087	24.39593	-216.42827	-31.74820	0.69560	449.23404	306.33011	138.15128	410.01361	35.64751	1164.95947	-603.68481	-10.83672	587.68677	-322.10217	147.50388	591.63342	-336.72858	83.97218	533.37604	618.60315	239.61201	523.31396	603.02972	
2469	24.680	-122.98186	168.54861	-174.33496	296.07379	24.07311	-216.45074	-33.30889	1.47632	449.02286	306.16293	139.39575	407.75958	34.15286	1163.64905	-605.41663	-11.68484	587.03052	-322.68152	146.62746	590.67841	-337.34103	83.53070	534.32166	618.23352	236.36552	523.88965	602.37354	
2470	24.690	-126.03458	167.04611	-174.49013	294.25790	23.62379	-216.96533	-34.36976	2.15036	448.67755	306.36008	136.58286	406.19180	32.96240	1161.83337	-607.13373	-13.38679	586.80615	-323.72110	145.40044	590.06616	-338.20078	81.15207	535.08978	616.89935	234.97565	524.58990	601.60266	
2471	24.700	-128.32185	163.37495	-175.74066	292.62115	23.10004	-217.48068	-35.70683	2.93073	448.21909	307.27350	132.44704	404.47885	31.48516	1160.88623	-609.20404	-14.50954	586.59241	-324.61972	144.36475	589.55518	-339.14099	79.17622	536.60986	616.13330	231.74565	525.41846	600.98840	
2472	24.710	-130.50905	158.80951	-177.55296	291.37051	22.29549	-217.88103	-36.84634	3.84338	447.96130	305.29025	126.97510	402.68600	30.70999	1159.76147	-611.08514	-15.67546	586.42065	-325.65765	142.83130	589.18665	-340.07758	78.05841	537.72870	616.35944	229.95634	526.36047	599.86987	
2473	24.720	-131.73143	153.59473	-179.95328	290.92065	22.29390	-217.87602	-37.67579	4.57511	447.86130	303.30765	120.67594	400.72375	30.59784	1159.07910	-612.97333	-17.24794	586.01208	-326.61475	141.70410	588.56311	-340.94104	75.61244	538.53699	614.43311	228.10420	527.20691	599.20099	
2474	24.730	-132.46027	146.75934	-182.40498	289.27087	21.38239	-218.54060	-39.27201	5.41287	447.37128	301.22427	113.52718	398.62576	30.68640	1158.48352	-614.82465	-18.54697	585.32312	-328.02795	139.97119	587.37695	-341.85892	73.79302	539.24774	613.07318	226.19759	527.97308	598.23822	
2475	24.740	-133.26367	139.15654	-185.10640	288.30743	20.92397	-218.83464	-40.42346	6.12031	447.09564	300.79681	106.57101	396.26404	30.63379	1157.97107	-616.89209	-19.71769	584.60474	-328.72983	138.20076	586.87701	-342.99838	72.00802	540.26489	612.10236	224.63838	528.87378	597.46057	
2476	24.750	-134.81860	131.00665	-188.13678	287.21573	20.74475	-218.91373	-41.48240	6.77079	446.88815	298.11514	97.54776	393.27405	31.17801	1157.22327	-618.73706	-21.63339	584.36658	-330.06400	137.00946	586.05890	-343.56915	69.98927	541.06769	611.09564	224.01515	529.51746	596.39899	
2477	24.760	-136.73036	121.77766	-191.51945	286.36542	20.31447	-219.09193	-42.63394	7.53717	446.55640	297.45898	88.44977	390.19647	31.06403	1156.40967	-620.87634	-22.79596	584.00183	-331.59842	135.91258	585.62579	-345.10547	67.41698	542.23596	609.93762	220.30109	530.21454	595.15161	
2478	24.770	-138.67909	112.89631	-194.92390	285.49551	19.75505	-219.32359	-43.80754	8.40470	445.75571	297.33069	79.66189	387.31161	31.01123	1155.35498	-623.14136	-23.83912	583.74017	-332.91931	134.72418	584.96167	-346.63739	65.56915	542.82867	608.47778	217.90205	530.63214	594.39423	
2479	24.780	-140.62645	103.77280	-197.73602	284.20938	19.09122	-219.89755	-44.91825	9.11469	445.60104	294.46777	69.95889	384.36429	30.88479	1154.04492	-625.51862	-25.00291	583.03607	-334.43225	133.33752	584.44672	-347.55099	63.31202	543.70624	607.37091	215.79640	531.11359	593.09515	
2480	24.790	-142.15526	94.90578	-200.38205	283.35846	18.65331	-220.17030	-46.20620	9.93320	445.27798	291.74515	60.70430	382.08386	30.59498	1152.91199	-627.74286	-26.28923	582.77344	-335.94095	131.84943	583.31482	-348.52490	60.97689	544.29816	605.95990	214.90877	531.58978	592.00983	
2481	24.800	-143.40759	85.56703	-202.73427	282.31943	18.16715	-220.59152	-47.29982	10.83924	444.68390	288.65195	51.93167	380.68176	30.42786	1151.94263	-630.21057	-27.76848	582.39752	-337.27603	130.52831	582.58173	-350.00125	59.27525	544.98309	604.62592	212.99825	532.04388	590.82581	
2482	24.810	-145.03812	76.98473	-204.24533	281.24173	17.29511	-220.99205	-48.02002	11.58725	444.67352	283.71707	42.57227	379.89886	29.77330	1150.85864	-632.61926	-29.10902	581.70850	-338.81940	129.67349	582.29974	-352.12439	57.89975	546.31848	603.71338	210.59973	532.93268	589.35553	
2483	24.820	-146.95122	68.83312	-205.93039	280.74503	16.91842	-221.21199	-49.36070	12.65300	444.20114	280.01266	35.22729	378.96555	29.65536	1150.26660	-635.06873	-30.37166	581.19720	-340.66660	128.54666	581.57947	-353.78046	55.11420	546.96490	601.89630	208.37126	533.52515	587.96667	
2484	24.830	-148.71742	61.47043	-207.32945	279.13919	16.39137	-221.71713	-50.23600	13.23434	443.79022	277.03012	28.63477	378.79755	28.93626	1149.11633	-637.56262	-31.72042	580.57623	-342.44272	127.18765	581.11816	-355.46851	52.56752	548.02692	600.87744	207.85289	534.36877	586.50153	
2485	24.840	-150.32513	54.46465	-208.34795	278.36365	15.55772	-222.08403	-51.25903	14.02553	443.45618	274.82343	23.97041	377.44910	28.39636	1148.20483	-640.17212	-33.02446	579.76294	-344.39474	126.02907	579.99640	-357.05811	50.09005	548.63324	598.72400	204.59035	534.82581	585.09454	
2486	24.850	-153.31282	48.17031	-209.94795	277.64731	15.48052	-222.09175	-52.28459	14.55137	443.25061	273.66013	23.08181	375.70438	27.66346	1146.74390	-642.87677	-34.55941	579.39648	-346.05405	124.15834	579.27557	-358.73981	48.17787	549.71704	596.87720	202.89523	535.73700	583.61053	
2487	24.860	-155.28351	40.95601	-211.40350	276.44235	14.88638	-222.45576	-53.12742	15.33592	442.76050	273.75287	23.13346	375.09628	27.44234	1145.12122	-645.64539	-35.83534	577.93915	-347.79712	123.16985	577.94604	-360.19650	45.57187	551.28577	595.27765	200.34509	537.65668	582.37994	
2488	24.870	-157.99167	34.08284	-213.08371	275.70694	14.52176	-222.59830	-53.89663	17.10863	442.19370	272.96521	24.61758	374.98883	26.91034	1143.86597	-649.19214	-37.19379	576.52600	-349.55545	121.19691	576.45239	-361.05664	42.58956	553.31470	593.73505	197.44695	540.10370	581.00018	
2489	24.880	-159.21716	25.51971	-214.33340	274.99966	14.12909	-223.01358	-54.38425	17.76995	441.93161	271.46762	26.38402	375.20273	26.36701	1142.25024	-653.31750	-38.59626	575.46619	-351.40530	120.69930	575.59778	-363.23361	39.43570	555.58990	591.87244	194.49135	542.51160	579.61926	
2490	24.890	-160.44814	14.73680	-216.61995	273.96719	13.64472	-223.15549	-55.44416	18.51275	441.43695	270.23376	27.64071	375.06827	24.90068	1139.81873	-657.70172	-39.91500	574.81207	-353.04544	119.48048	575.15210	-364.61313	37.08222	557.64325	590.73181	191.01248	544.16614	578.50946	
2491	24.900	-164.08588	14.94603	-216.21664	272.73230	13.30263	-223.65274	-56.66548	19.37133	440.75153	269.37231	27.84765	374.73886	22.82674	1136.37659	-661.61450	-40.67883	576.11536	-354.50446	118.11190	575.36737	-365.55505	33.62635	559.08722	588.80035	188.18098	545.17236	577.52576	
